<?xml version="1.0" encoding="utf-8"?>
<!-- Generator: Adobe Illustrator 16.0.0, SVG Export Plug-In . SVG Version: 6.00 Build 0)  -->
<!DOCTYPE svg PUBLIC "-//W3C//DTD SVG 1.1//EN" "http://www.w3.org/Graphics/SVG/1.1/DTD/svg11.dtd">
<svg version="1.1" id="Layer_1" xmlns="http://www.w3.org/2000/svg" xmlns:xlink="http://www.w3.org/1999/xlink" x="0px" y="0px"
	 width="1280px" height="129.277px" viewBox="0 0 1280 129.277" enable-background="new 0 0 1280 129.277" xml:space="preserve">
<polygon fill="none" points="1.954,129.273 16.622,129.273 68.07,27.208 80.868,129.273 93.018,129.273 78.748,15.501 
	427.584,129.273 440,129.273 466.473,129.273 84.217,4.618 89.774,0.273 60.967,0.273 64.342,5.523 "/>
<rect x="626.441" y="0.273" fill="none" width="12.291" height="129"/>
<polygon fill="none" points="596.505,129.273 503.954,0.273 489.154,0.273 581.704,129.273 "/>
<polygon fill="none" points="798.71,129.273 821.397,129.273 837.6,129.273 1186.426,15.501 1172.175,129.273 1184.34,129.273 
	1197.138,27.208 1248.586,129.273 1263.251,129.273 1200.859,5.523 1204.235,0.273 1175.399,0.273 1180.956,4.618 "/>
<polygon fill="none" points="683.486,129.273 776.043,0.273 761.229,0.273 668.671,129.273 "/>
<polygon fill="#00CE2F" points="64.342,5.523 60.967,0.273 0.753,0.273 0.753,129.273 1.954,129.273 "/>
<polygon fill="#00CE2F" points="466.473,129.273 510.037,129.273 570.593,129.273 581.704,129.273 489.154,0.273 440,0.273 
	362.365,0.273 231.772,0.273 189.195,0.273 89.774,0.273 84.217,4.618 "/>
<polygon fill="#159D9F" points="613.17,129.273 626.441,129.273 626.441,0.273 613.17,0.273 570.593,0.273 510.037,0.273 
	503.954,0.273 596.505,129.273 "/>
<polygon fill="#3AC1D4" points="231.772,129.273 362.365,129.273 427.584,129.273 78.748,15.501 93.018,129.273 189.195,129.273 "/>
<polygon fill="#3AC1D4" points="68.07,27.208 16.622,129.273 80.868,129.273 "/>
<polygon fill="#00CE2F" points="1263.251,129.273 1280.753,129.273 1280.753,0.273 1204.235,0.273 1200.859,5.523 "/>
<polygon fill="#EF7367" points="718.266,129.273 760.842,129.273 798.71,129.273 1180.956,4.618 1175.399,0.273 1142.238,0.273 
	1099.662,0.273 969.069,0.273 891.435,0.273 821.397,0.273 776.043,0.273 683.486,129.273 "/>
<polygon fill="#FAE32F" points="668.671,129.273 761.229,0.273 760.842,0.273 718.266,0.273 638.732,0.273 638.732,129.273 "/>
<polygon fill="#FAE32F" points="969.069,129.273 1099.662,129.273 1142.238,129.273 1172.175,129.273 1186.426,15.501 
	837.6,129.273 891.435,129.273 "/>
<polygon fill="#FAE32F" points="1197.138,27.208 1184.34,129.273 1248.586,129.273 "/>
<polygon fill="#FFFFFF" points="0.753,129.273 0.753,131.656 1.954,129.273 "/>
</svg>
